<?xml version="1.0" encoding="UTF-8"?>
<svg width="16px" height="16px" viewBox="0 0 16 16" version="1.1" xmlns="http://www.w3.org/2000/svg" xmlns:xlink="http://www.w3.org/1999/xlink">
    <!-- Generator: Sketch 61.2 (89653) - https://sketch.com -->
    <title>last</title>
    <desc>Created with Sketch.</desc>
    <g id="last" stroke="none" stroke-width="1" fill="none" fill-rule="evenodd">
        <path d="M5.929,13.21 L1.311,8.592 C1.2676149,8.56336031 1.22768354,8.52980455 1.192,8.492 C0.934222076,8.22159119 0.934222076,7.79640881 1.192,7.526 L5.815,2.7 C5.93503153,2.57211756 6.10261047,2.49957566 6.278,2.49957566 C6.45338953,2.49957566 6.62096847,2.57211756 6.741,2.7 C6.99814302,2.9702761 6.99814302,3.3947239 6.741,3.665 L3.232,7.329 L14.096,7.329 C14.3460649,7.31942628 14.5813427,7.4473756 14.7092209,7.66248321 C14.837099,7.87759083 14.837099,8.14540917 14.7092209,8.36051679 C14.5813427,8.5756244 14.3460649,8.70357372 14.096,8.694 L3.302,8.694 L6.869,12.268 C7.037808,12.436808 7.10373502,12.682851 7.04194701,12.913447 C6.980159,13.144043 6.80004301,13.324159 6.56944701,13.385947 C6.338851,13.447735 6.09280799,13.381808 5.924,13.213 L5.929,13.21 Z" id="Union_4" fill="#000000" fill-rule="nonzero"></path>
    </g>
</svg>