<?xml version="1.0" encoding="UTF-8"?>
<svg width="12px" height="12px" viewBox="0 0 12 12" version="1.1" xmlns="http://www.w3.org/2000/svg" xmlns:xlink="http://www.w3.org/1999/xlink">
    <!-- Generator: Sketch 61.2 (89653) - https://sketch.com -->
    <title> next</title>
    <desc>Created with Sketch.</desc>
    <defs>
        <path d="M4.331,9.9999983 C4.41955665,9.99944572 4.50419815,9.96342806 4.566,9.9 L8.392,6.257 C8.46637279,6.19202902 8.50993497,6.09873335 8.51200126,5.9999983 C8.51226164,5.90214789 8.4716641,5.80862854 8.4,5.742 L4.571,2.1 C4.50728419,2.03637133 4.4210451,2.00043838 4.331,1.9999983 C4.24197941,1.99971285 4.15671352,2.03584247 4.095,2.1 C4.03084247,2.16171352 3.99471285,2.24697941 3.9949983,2.336 C3.99588596,2.42448761 4.03185167,2.50900701 4.095,2.571 L7.7,5.9999983 L4.1,9.428 C4.03590568,9.49140317 3.9998885,9.5778444 4,9.668 C4.00079562,9.75563076 4.03683881,9.83925095 4.1,9.9 C4.16050684,9.96291511 4.24371736,9.99893699 4.331,9.9999983 Z" id="path-1"></path>
    </defs>
    <g id="-next" stroke="none" stroke-width="1" fill="none" fill-rule="evenodd">
        <mask id="mask-2" fill="white">
            <use xlink:href="#path-1"></use>
        </mask>
        <use id="Path_8" fill="#000000" xlink:href="#path-1"></use>
    </g>
</svg>