<?xml version="1.0" encoding="UTF-8"?>
<svg width="16px" height="16px" viewBox="0 0 16 16" version="1.1" xmlns="http://www.w3.org/2000/svg" xmlns:xlink="http://www.w3.org/1999/xlink">
    <!-- Generator: Sketch 61.2 (89653) - https://sketch.com -->
    <title>search</title>
    <desc>Created with Sketch.</desc>
    <g id="search" stroke="none" stroke-width="1" fill="none" fill-rule="evenodd">
        <path d="M15.9025804,14.9611848 L11.2624884,10.3210927 C13.3818195,7.70108671 13.0796048,3.88058383 10.5747065,1.62636995 C8.06980807,-0.627843925 4.2386974,-0.527012641 1.85584238,1.85584238 C-0.527012641,4.2386974 -0.627843925,8.06980807 1.62636995,10.5747065 C3.88058383,13.0796048 7.70108671,13.3818195 10.3210927,11.2624884 L14.965178,15.8985872 C15.0275241,15.960951 15.1120941,15.9959881 15.2002773,15.9959881 C15.2884605,15.9959881 15.3730306,15.960951 15.4353766,15.8985872 L15.9055753,15.4283886 C16.0326323,15.2980889 16.0312974,15.0898448 15.9025804,14.9611848 Z M6.34886247,11.3403556 C3.59213691,11.3403556 1.3573693,9.10558803 1.3573693,6.34886247 C1.3573693,3.59213691 3.59213691,1.3573693 6.34886247,1.3573693 C9.10558803,1.3573693 11.3403556,3.59213691 11.3403556,6.34886247 C11.3370605,9.10266372 9.10665339,11.3348566 6.35285567,11.3403556 L6.34886247,11.3403556 Z" id="Path_324" fill="#000000" fill-rule="nonzero"></path>
    </g>
</svg>