<?xml version="1.0" encoding="UTF-8"?>
<svg width="24px" height="24px" viewBox="0 0 24 24" version="1.1" xmlns="http://www.w3.org/2000/svg" xmlns:xlink="http://www.w3.org/1999/xlink">
    <!-- Generator: Sketch 61.2 (89653) - https://sketch.com -->
    <title>blocks</title>
    <desc>Created with Sketch.</desc>
    <g id="blocks" stroke="none" stroke-width="1" fill="none" fill-rule="evenodd">
        <path d="M11.130587,0.519846676 C11.5958394,0.253379872 12.1577799,0.229155617 12.6404904,0.447104423 L12.7827508,0.519754188 L21.5741207,5.54402213 C22.0502391,5.81565379 22.3587847,6.3014706 22.4069026,6.84116991 L22.4134992,6.98957613 L22.4134992,17.0103102 C22.4137997,17.5582363 22.144534,18.0676753 21.699816,18.3767087 L21.57425,18.4559001 L12.7829848,23.4801079 C12.318037,23.7466578 11.7554508,23.7708896 11.2729264,23.552904 L11.1307487,23.4802419 L2.33937878,18.4559739 C1.86326037,18.1843423 1.55471477,17.6985255 1.50659688,17.1588261 L1.50000025,17.0104199 L1.50000025,6.9896859 C1.49969976,6.44175971 1.76896547,5.93232073 2.21382869,5.62320448 L2.33924949,5.54409596 L11.130587,0.519846676 Z M20.5480003,8.12401156 L12.8890003,13.2310116 L12.8890003,21.2710116 L20.5480003,16.8940116 L20.5480003,8.12401156 Z M3.36500025,8.12401156 L3.36500025,16.8940116 L11.0240003,21.2710116 L11.0240003,13.2310116 L3.36500025,8.12401156 Z M11.9560003,2.19501156 L4.35100025,6.54001156 L11.9560003,11.6120116 L19.5620003,6.54001156 L11.9560003,2.19501156 Z" id="Shape" fill="rgba(119, 119, 119, 1)" fill-rule="nonzero"></path>
    </g>
</svg>