<?xml version="1.0" encoding="UTF-8"?>
<svg width="16px" height="16px" viewBox="0 0 16 16" version="1.1" xmlns="http://www.w3.org/2000/svg" xmlns:xlink="http://www.w3.org/1999/xlink">
    <!-- Generator: Sketch 61.2 (89653) - https://sketch.com -->
    <title>copy</title>
    <desc>Created with Sketch.</desc>
    <defs>
        <path d="M9.06030767,0 L9.10730767,0.005 C9.14136395,0.00853898267 9.17491058,0.0159192407 9.20730767,0.027 L9.20730767,0.027 C9.22030348,0.0307194464 9.23300508,0.0353989846 9.24530767,0.041 C9.29367375,0.06210776 9.33774131,0.0919381127 9.37530767,0.129 L13.9753077,4.729 L14.0253077,4.851 C14.0133077,4.781 14.0133077,4.781 13.9963077,4.751 L13.9863077,4.738 L14.0263077,4.789 C14.0399088,4.81008807 14.0519413,4.83214752 14.0623077,4.855 C14.0677377,4.86703083 14.0724134,4.87938806 14.0763077,4.892 L14.0763077,4.897 C14.0868059,4.92744801 14.0938501,4.95897909 14.0973077,4.991 C14.1004684,5.00717017 14.1024735,5.02354493 14.1033077,5.04 L14.1033077,11.131 C14.1022052,12.2190963 13.2204039,13.1008976 12.1323077,13.102 L11.0493077,13.102 L11.0493077,13.375 C11.0498387,13.8987919 10.8420668,14.4012978 10.4717836,14.7717686 C10.1015004,15.1422394 9.59909976,15.3502657 9.07530767,15.350001 L2.97530767,15.350001 C2.45134238,15.3505314 1.94868458,15.1426223 1.57818498,14.7721227 C1.20768537,14.4016231 0.999776267,13.8989653 1.00030767,13.375 L1.00030767,4.214 C0.990930107,3.68810467 1.19626243,3.18109619 1.56893973,2.80992847 C1.94161702,2.43876076 2.44945473,2.23548799 2.97530767,2.247 L4.05230767,2.247 L4.05230767,1.975 C4.0534101,0.886903726 4.9352114,0.00510242868 6.02330767,0.004 L9.06030767,0 Z M5.56030767,3.136 L2.97530767,3.136 C2.3774118,3.13655131 1.89285898,3.62110413 1.89230582,4.219 L1.89230582,13.375 C1.8917768,13.6626678 2.00561194,13.9387499 2.20874264,14.1424433 C2.41187333,14.3461367 2.68763945,14.4607351 2.97530767,14.4610019 L9.07530767,14.4610019 C9.3634956,14.4615322 9.64003328,14.3472856 9.84381327,14.1435056 C10.0475933,13.9397256 10.1618399,13.6631879 10.1613095,13.375 L10.1613095,7.732 L7.53530767,7.732 C6.4472114,7.73089757 5.5654101,6.84909627 5.56430767,5.761 L5.56030767,3.136 Z M9.50030767,1.517 L9.50030767,3.517 C9.50085898,4.11489587 9.9854118,4.59944869 10.5833077,4.6 L12.5833077,4.6 L9.50030767,1.517 Z M6.45330767,3.764 L6.45330767,5.764 C6.45550718,6.36033439 6.93897023,6.8429038 7.53530767,6.844 L9.53530767,6.844 L6.45330767,3.764 Z M12.1313077,12.214 C12.7286513,12.2134487 13.2127564,11.7293436 13.2133077,11.132 L13.2133077,5.486 L10.5873077,5.486 C9.49843077,5.48544825 8.61585942,4.6028769 8.61530767,3.514 L8.61530767,0.888 L6.02330767,0.888 C5.73546578,0.888264434 5.45954768,1.00300013 5.25638816,1.20691 C5.05322865,1.41081987 4.93951094,1.68715909 4.94030351,1.975 L4.94030351,2.251 L6.00830767,2.251 L6.05430767,2.256 C6.08836712,2.25893344 6.12194538,2.26598487 6.15430767,2.277 L6.15430767,2.277 L6.18930767,2.29 C6.23831041,2.3114716 6.28302912,2.34162286 6.32130767,2.379 L10.9213077,6.979 L10.9303077,6.987 L10.9303077,6.987 L10.9303077,6.987 C10.9635334,7.02296606 10.9905665,7.06419163 11.0103077,7.109 C11.0193077,7.131 11.0193077,7.131 11.0233077,7.142 L11.0233077,7.15 C11.0337334,7.18012572 11.0407767,7.21131741 11.0443077,7.243 C11.0473332,7.25885506 11.0493373,7.27488805 11.0503077,7.291 L11.0503077,12.217 L12.1313077,12.214 Z" id="path-1"></path>
    </defs>
    <g id="copy" stroke="none" stroke-width="1" fill="none" fill-rule="evenodd">
        <mask id="mask-2" fill="white">
            <use xlink:href="#path-1"></use>
        </mask>
        <use id="Path_89" fill="rgba(153, 153, 153, 1)" xlink:href="#path-1"></use>
    </g>
</svg>