<?xml version="1.0" encoding="UTF-8"?>
<svg width="16px" height="16px" viewBox="0 0 16 16" version="1.1" xmlns="http://www.w3.org/2000/svg" xmlns:xlink="http://www.w3.org/1999/xlink">
    <!-- Generator: Sketch 61.2 (89653) - https://sketch.com -->
    <title>cross</title>
    <desc>Created with Sketch.</desc>
    <g id="cross" stroke="none" stroke-width="1" fill="none" fill-rule="evenodd">
        <path d="M12.473,13.534 L7.873,8.934 L3.273,13.534 C2.97983957,13.8265682 2.50516043,13.8265682 2.212,13.534 C1.91943179,13.2408396 1.91943179,12.7661604 2.212,12.473 L6.812,7.873 L2.212,3.273 C1.91943179,2.97983957 1.91943179,2.50516043 2.212,2.212 C2.50516043,1.91943179 2.97983957,1.91943179 3.273,2.212 L7.873,6.812 L12.473,2.212 C12.7661604,1.91943179 13.2408396,1.91943179 13.534,2.212 C13.6747563,2.35266608 13.7538399,2.54350435 13.7538399,2.7425 C13.7538399,2.94149565 13.6747563,3.13233392 13.534,3.273 L8.934,7.873 L13.534,12.473 C13.6747563,12.6136661 13.7538399,12.8045044 13.7538399,13.0035 C13.7538399,13.2024956 13.6747563,13.3933339 13.534,13.534 C13.393506,13.674606 13.2027673,13.7534262 13.004,13.753 C12.8048864,13.7536872 12.6137386,13.6748522 12.473,13.534 L12.473,13.534 Z" id="Union_1" fill="rgba(153, 153, 153, 1)" fill-rule="nonzero"></path>
    </g>
</svg>