<svg id="Layer_1" data-name="Layer 1" xmlns="http://www.w3.org/2000/svg" viewBox="0 0 24 24"><defs><style>.cls-1{fill:#fff;fill-rule:evenodd;}</style></defs><path class="cls-1" d="M12,0A12,12,0,1,0,24,12,12,12,0,0,0,12,0Zm3.25,18.35-.37-1.3.89.84.85.78L18.12,20V7.44A1.43,1.43,0,0,0,16.69,6H7.31A1.44,1.44,0,0,0,5.87,7.44v9.47a1.45,1.45,0,0,0,1.44,1.44ZM14,15.14l-.46-.57a2.16,2.16,0,0,0,1.26-.83,3.8,3.8,0,0,1-.8.41,4.73,4.73,0,0,1-1,.31,5,5,0,0,1-1.81,0,6.42,6.42,0,0,1-1-.3,4.63,4.63,0,0,1-.51-.24l0,0h0l0,0,0,0-.2-.12a2.21,2.21,0,0,0,1.23.83l-.47.58A2.55,2.55,0,0,1,8,14.08,9.32,9.32,0,0,1,9,10a3.47,3.47,0,0,1,2-.74l.07.09a4.7,4.7,0,0,0-1.84.91l.41-.2a5.23,5.23,0,0,1,1.59-.44l.12,0a6,6,0,0,1,1.41,0,5.73,5.73,0,0,1,2.11.67,4.72,4.72,0,0,0-1.74-.89l.1-.11a3.45,3.45,0,0,1,2,.74,9.32,9.32,0,0,1,1,4.08A2.62,2.62,0,0,1,14,15.14Zm-.7-3.27a.78.78,0,0,0,0,1.56.78.78,0,0,0,0-1.56Zm-2.56,0a.78.78,0,0,0,0,1.56.78.78,0,0,0,0-1.56Z"/></svg>