<?xml version="1.0" encoding="utf-8"?>
<!-- Generator: Adobe Illustrator 24.0.1, SVG Export Plug-In . SVG Version: 6.00 Build 0)  -->
<svg version="1.1" id="home" xmlns="http://www.w3.org/2000/svg" xmlns:xlink="http://www.w3.org/1999/xlink" x="0px" y="0px" width="120px" height="120px"
	 viewBox="0 0 120 120" style="enable-background:new 0 0 120 120;" xml:space="preserve">
<style type="text/css">
	.st0{fill:none;}
	.st1{stroke:#000000;stroke-width:0.14;stroke-miterlimit:10;}
	.st2{fill:#FD3B4C;}
	.st3{fill-rule:evenodd;clip-rule:evenodd;fill:#F4863B;}
	.st4{fill:#FFFFFF;}
	.st5{fill-rule:evenodd;clip-rule:evenodd;fill:#5C7BFC;}
	.st6{fill-rule:evenodd;clip-rule:evenodd;fill:#FEB92B;}
	.st7{fill-rule:evenodd;clip-rule:evenodd;fill:#3EAF66;}
	.st8{fill:#8F4DDB;}
	.st9{fill:#1D1E22;}
	.st10{fill:#FD565F;}
	.st11{fill:#25282D;}
	.st12{fill:#E6E6E6;}
	.st13{fill-rule:evenodd;clip-rule:evenodd;fill:#FD3B4C;}
	.st14{fill-rule:evenodd;clip-rule:evenodd;fill:#FFFFFF;}
	.st15{fill:#12B263;}
	.st16{fill:#3EAF66;}
	.st17{fill:#DC001A;}
	.st18{fill:#F6504B;}
</style>
<g>
	<path d="M60,0C26.92,0,0,26.92,0,60s26.92,60,60,60s60-26.92,60-60S93.08,0,60,0z M60,117C28.57,117,3,91.43,3,60S28.57,3,60,3
		s57,25.57,57,57S91.43,117,60,117z" fill="rgba(8, 178, 122, 1)"/>
	<path d="M86,57.56c3.58,0,6.5-2.92,6.5-6.5s-2.92-6.5-6.5-6.5c-3.57,0-6.5,2.92-6.5,6.5S82.43,57.56,86,57.56z M86,47.81
		c1.95,0,3.25,1.3,3.25,3.25s-1.3,3.25-3.25,3.25c-1.95,0-3.25-1.3-3.25-3.25S84.05,47.81,86,47.81z" fill="rgba(8, 178, 122, 1)"/>
	<path d="M90.88,60.81h-9.75c-0.97,0-1.62,0.65-1.62,1.62c0,0.97,0.65,1.62,1.62,1.62h9.75c2.6,0,4.88,2.27,4.88,4.88v3.25
		c0,0.97,0.65,1.62,1.62,1.62c0.98,0,1.62-0.65,1.62-1.62v-3.25C99,64.39,95.43,60.81,90.88,60.81z" fill="rgba(8, 178, 122, 1)"/>
	<path d="M34,44.56c-3.57,0-6.5,2.92-6.5,6.5s2.93,6.5,6.5,6.5c3.58,0,6.5-2.92,6.5-6.5S37.58,44.56,34,44.56z M34,54.31
		c-1.95,0-3.25-1.3-3.25-3.25s1.3-3.25,3.25-3.25c1.95,0,3.25,1.3,3.25,3.25S35.95,54.31,34,54.31z" fill="rgba(8, 178, 122, 1)"/>
	<path d="M38.88,60.81h-9.75c-4.55,0-8.12,3.58-8.12,8.12v3.25c0,0.97,0.65,1.62,1.62,1.62c0.98,0,1.62-0.65,1.62-1.62v-3.25
		c0-2.6,2.28-4.88,4.88-4.88h9.75c0.98,0,1.62-0.65,1.62-1.62C40.5,61.46,39.85,60.81,38.88,60.81z" fill="rgba(8, 178, 122, 1)"/>
	<path d="M60,59.19c5.53,0,9.75-4.23,9.75-9.75c0-5.53-4.22-9.75-9.75-9.75c-5.52,0-9.75,4.22-9.75,9.75
		C50.25,54.96,54.48,59.19,60,59.19z M60,42.94c3.58,0,6.5,2.92,6.5,6.5s-2.92,6.5-6.5,6.5c-3.57,0-6.5-2.92-6.5-6.5
		S56.43,42.94,60,42.94z" fill="rgba(8, 178, 122, 1)"/>
	<path d="M69.75,64.06h-19.5c-4.55,0-8.12,3.58-8.12,8.12v6.5c0,0.97,0.65,1.62,1.62,1.62c0.98,0,1.62-0.65,1.62-1.62v-6.5
		c0-2.6,2.28-4.88,4.88-4.88h19.5c2.6,0,4.88,2.27,4.88,4.88v6.5c0,0.97,0.65,1.62,1.62,1.62c0.98,0,1.62-0.65,1.62-1.62v-6.5
		C77.88,67.64,74.3,64.06,69.75,64.06z" fill="rgba(8, 178, 122, 1)"/>
</g>
</svg>
