<?xml version="1.0" encoding="UTF-8"?>
<svg width="24px" height="24px" viewBox="0 0 24 24" version="1.1" xmlns="http://www.w3.org/2000/svg" xmlns:xlink="http://www.w3.org/1999/xlink">
    <!-- Generator: Sketch 61.2 (89653) - https://sketch.com -->
    <title>home</title>
    <desc>Created with Sketch.</desc>
    <g id="home" stroke="none" stroke-width="1" fill="none" fill-rule="evenodd">
        <path d="M4.3625,14 C4.90511977,14 5.345,14.4398802 5.345,14.9825 L5.34560196,19.8968059 C5.34560196,20.5253071 5.71464373,20.8796069 6.33331696,20.8796069 L11.999,20.879 L11.999,22.845 L6.33380836,22.8452088 C4.64683047,22.8452088 3.38,21.6289926 3.38,19.8968059 L3.38,14.9825 C3.38,14.4398802 3.81988023,14 4.3625,14 Z M19.6365,14 C20.1403612,14 20.5556358,14.3792845 20.61239,14.8679197 L20.619,14.9825 L20.619,19.8968059 C20.619,21.5671288 19.4410416,22.7576781 17.844293,22.8405869 L17.6651916,22.8452088 L12,22.845 L12,20.879 L17.665683,20.8796069 C18.2401653,20.8796069 18.5994042,20.5741137 18.647793,20.0272586 L18.653398,19.8968059 L18.654,14.9825 C18.654,14.4398802 19.0938802,14 19.6365,14 Z M12.7066017,1.29289322 L23.6060967,11.1923882 C23.9966209,11.5829124 23.9966209,12.2160774 23.6060967,12.6066017 C23.2155724,12.997126 22.5824074,12.997126 22.1918831,12.6066017 L11.9994949,3.41421356 L1.80710678,12.6066017 C1.41658249,12.997126 0.783417511,12.997126 0.392893219,12.6066017 C0.00236892706,12.2160774 0.00236892706,11.5829124 0.392893219,11.1923882 L11.2923882,1.29289322 C11.6829124,0.902368927 12.3160774,0.902368927 12.7066017,1.29289322 Z" id="Combined-Shape" fill="rgba(119, 119, 119, 1)"></path>
    </g>
</svg>