<?xml version="1.0" encoding="UTF-8"?>
<svg width="26px" height="22px" viewBox="0 0 12 17" version="1.1" xmlns="http://www.w3.org/2000/svg" xmlns:xlink="http://www.w3.org/1999/xlink">
    <!-- Generator: Sketch 61.2 (89653) - https://sketch.com -->
    <title>logout</title>
    <desc>Created with Sketch.</desc>
    <g id="logout" stroke="none" stroke-width="1" fill="none" fill-rule="evenodd">
        <path d="M7.2,15.987 L0.536,14.653 C0.224476254,14.5909995 0,14.3176336 0,13.9999992 L0,0.667 C0,0.653 0.009,0.641 0.009,0.628 C0.00765384601,0.608690099 0.00765384601,0.589309901 0.009,0.57 C0.0191580904,0.516007114 0.0363021604,0.463566429 0.06,0.414 C0.065305718,0.395000303 0.0716485596,0.376305612 0.079,0.358 C0.122530681,0.27601916 0.18283955,0.204125537 0.256,0.147 C0.261,0.143 0.263,0.136 0.269,0.132 C0.275,0.128 0.3,0.121 0.315,0.111 C0.401154661,0.0567572196 0.498705427,0.0232134474 0.6,0.013 C0.622068587,0.00739894797 0.6444381,0.00305859471 0.667,-7.52967319e-07 L11.333,-7.52967319e-07 C11.5099808,-0.000265937026 11.6797894,0.0699216731 11.8049339,0.195066132 C11.9300783,0.320210591 12.0002659,0.490019209 12,0.667 L12,4.667 C11.9861281,5.02505884 11.6918275,5.3081785 11.3335,5.3081785 C10.9751725,5.3081785 10.6808719,5.02505884 10.667,4.667 L10.667,1.333 L5.209,1.333 L7.524,2.028 C7.80643816,2.11241305 7.99996992,2.37221723 8,2.667 L8,13.333 L10.667,13.333 L10.667,9.99999925 C10.6575363,9.75572473 10.7824601,9.52584383 10.9925721,9.40089221 C11.2026841,9.27594059 11.4643159,9.27594059 11.6744279,9.40089221 C11.8845399,9.52584383 12.0094637,9.75572473 12,9.99999925 L12,13.9999992 C12.0002659,14.1769808 11.9300783,14.3467894 11.8049339,14.4719339 C11.6797894,14.5970783 11.5099808,14.6672659 11.333,14.667 L8,14.667 L8,15.334 C7.9994483,15.7019833 7.70098376,16.0000334 7.333,16.0000334 C7.28832812,16.0004632 7.24373667,15.9961047 7.2,15.987 Z M12.862,9.8 C12.7367536,9.67505497 12.6663655,9.50541217 12.6663655,9.3285 C12.6663655,9.15158783 12.7367536,8.98194503 12.862,8.857 L13.724,8 L10,8 C9.64194116,7.98612811 9.3588215,7.69182745 9.3588215,7.3335 C9.3588215,6.97517255 9.64194116,6.68087189 10,6.667 L13.724,6.667 L12.862,5.8 C12.6123187,5.53783459 12.6173603,5.12435926 12.8733598,4.86835978 C13.1293593,4.61236029 13.5428346,4.60731866 13.805,4.857 L15.805,6.857 C15.86699,6.91921162 15.9162438,6.9929225 15.95,7.074 C16.0526237,7.3234075 15.9954536,7.61004671 15.805,7.801 L13.805,9.801 C13.680055,9.92624638 13.5104122,9.99663445 13.3335,9.99663445 C13.1565878,9.99663445 12.986945,9.92624638 12.862,9.801 L12.862,9.8 Z" id="Union_5" fill="rgba(255, 255, 255, 1)" fill-rule="nonzero"></path>
    </g>
</svg>