<?xml version="1.0" encoding="UTF-8"?>
<svg width="12px" height="12px" viewBox="0 0 12 12" version="1.1" xmlns="http://www.w3.org/2000/svg" xmlns:xlink="http://www.w3.org/1999/xlink">
    <!-- Generator: Sketch 61.2 (89653) - https://sketch.com -->
    <title>memo</title>
    <desc>Created with Sketch.</desc>
    <g id="memo" stroke="none" stroke-width="1" fill="none" fill-rule="evenodd">
        <path d="M4.5,0 L4.5,6.712 C4.5,6.98151496 4.71848504,7.2 4.988,7.2 L5.103,7.2 C5.34147097,7.2000552 5.57021555,7.10546428 5.739,6.937 L6.882,5.795 C7.05769053,5.61952797 7.34230947,5.61952797 7.518,5.795 L8.664,6.938 C8.83270232,7.10585305 9.06101867,7.20005601 9.299,7.2 L9.413,7.2 C9.68141039,7.2 9.899,6.98241039 9.899,6.714 L9.899,0 L10.799,0 C11.2960563,0 11.699,0.402943725 11.699,0.9 L11.699,11.1 C11.699,11.5970563 11.2960563,12 10.799,12 L0.899,12 C0.401943725,12 -0.001,11.5970563 -0.001,11.1 L-0.001,0.9 C-0.001,0.402943725 0.401943725,0 0.899,0 L4.5,0 Z M5.4,0 L9,0 L9,6 L7.836,4.836 C7.66720882,4.66715369 7.43824576,4.57229219 7.1995,4.57229219 C6.96075424,4.57229219 6.73179118,4.66715369 6.563,4.836 L5.399,6 L5.4,0 Z" id="书签_标注_标记_证书_认证_面性" fill="rgba(86, 91, 95, 0.59)" fill-rule="nonzero"></path>
    </g>
</svg>