<?xml version="1.0" encoding="UTF-8"?>
<svg width="16px" height="16px" viewBox="0 0 16 16" version="1.1" xmlns="http://www.w3.org/2000/svg" xmlns:xlink="http://www.w3.org/1999/xlink">
    <!-- Generator: Sketch 61.2 (89653) - https://sketch.com -->
    <title>menu</title>
    <desc>Created with Sketch.</desc>
    <defs>
        <path d="M0.7,14 C0.313400675,14 0,14.3134007 0,14.7 C0,15.0865993 0.313400675,15.4 0.7,15.4 L15.3,15.4 C15.6865993,15.4 16,15.0865993 16,14.7 C16,14.3134007 15.6865993,14 15.3,14 L0.7,14 Z M0.7,8 C0.313400675,8 0,8.31340068 0,8.7 C0,9.08659932 0.313400675,9.4 0.7,9.4 L15.3,9.4 C15.6865993,9.4 16,9.08659932 16,8.7 C16,8.31340068 15.6865993,8 15.3,8 L0.7,8 Z M0.7,2 C0.313400675,2 0,2.31340068 0,2.7 C0,3.08659932 0.313400675,3.4 0.7,3.4 L15.3,3.4 C15.6865993,3.4 16,3.08659932 16,2.7 C16,2.31340068 15.6865993,2 15.3,2 L0.7,2 Z" id="path-1"></path>
    </defs>
    <g id="menu" stroke="none" stroke-width="1" fill="none" fill-rule="evenodd">
        <mask id="mask-2" fill="white">
            <use xlink:href="#path-1"></use>
        </mask>
        <use id="Path_2" fill="rgba(255, 255, 255, 0.8)" xlink:href="#path-1"></use>
    </g>
</svg>