<?xml version="1.0" encoding="UTF-8"?>
<svg width="24px" height="24px" viewBox="0 0 24 24" version="1.1" xmlns="http://www.w3.org/2000/svg" xmlns:xlink="http://www.w3.org/1999/xlink">
    <!-- Generator: Sketch 61.2 (89653) - https://sketch.com -->
    <title>proposal</title>
    <desc>Created with Sketch.</desc>
    <g id="proposal" stroke="none" stroke-width="1" fill="none" fill-rule="evenodd">
        <path d="M21.8255305,0 C22.3685554,0 22.808764,0.444787875 22.808764,0.993461525 C22.808764,1.5029442 22.4291964,1.9228519 21.9401963,1.98023931 L21.8255305,1.98692305 L5.33851375,1.98692305 C4.97461989,1.98692305 4.62563055,2.13298484 4.36832114,2.39297575 C4.14777022,2.61582511 4.01006185,2.90673026 3.97522194,3.21684071 L3.96646707,3.37327021 L3.96646707,20.6267317 C3.96646024,20.9944109 4.11101173,21.3470333 4.36832114,21.6070242 C4.58887206,21.8298736 4.87677967,21.9690199 5.1836956,22.0042281 L5.33851375,22.0130769 L19.4702503,22.0130769 C19.8341441,22.0130769 20.1831335,21.8670152 20.4404429,21.6070242 C20.6609938,21.3841749 20.7987022,21.0932697 20.8335421,20.7831593 L20.842297,20.6267298 L20.842297,4.86062972 C20.842297,4.31195607 21.2825056,3.8671682 21.8255305,3.8671682 C22.3297679,3.8671682 22.7453525,4.25068427 22.8021491,4.74477112 L22.808764,4.86062972 L22.808764,20.6267298 C22.808764,22.4275922 21.4120103,23.8989209 19.6534216,23.9950085 L19.4702503,24 L5.33851375,24 C3.55620142,24 2.1000373,22.5887001 2.00494004,20.8118075 L2,20.6267298 L2,3.37327021 C2,1.57240778 3.39675371,0.101079107 5.15534248,0.00499148739 L5.33851375,0 L21.8255305,0 Z M13.5820359,12.791381 C14.1250608,12.791381 14.5652695,13.2361689 14.5652695,13.7848426 C14.5652695,14.2943252 14.1857018,14.7142329 13.6967017,14.7716204 L13.5820359,14.7783041 L7.69379397,14.7783041 C7.15076909,14.7783041 6.71056044,14.3335162 6.71056044,13.7848426 C6.71056044,13.2753599 7.0901281,12.8554522 7.57912817,12.7980648 L7.69379397,12.791381 L13.5820359,12.791381 Z M17.1149701,8.03179156 C17.6579949,8.03179156 18.0982036,8.47657944 18.0982036,9.02525309 C18.0982036,9.53473576 17.7186359,9.95464346 17.2296359,10.0120309 L17.1149701,10.0187146 L7.69379397,10.0187146 C7.15076909,10.0187146 6.71056044,9.57392674 6.71056044,9.02525309 C6.71056044,8.51577041 7.0901281,8.09586272 7.57912817,8.03847531 L7.69379397,8.03179156 L17.1149701,8.03179156 Z" id="Shape" fill="rgba(119, 119, 119, 1)" fill-rule="nonzero"></path>
    </g>
</svg>