<?xml version="1.0" encoding="UTF-8"?>
<svg width="16px" height="16px" viewBox="0 0 16 16" version="1.1" xmlns="http://www.w3.org/2000/svg" xmlns:xlink="http://www.w3.org/1999/xlink">
    <!-- Generator: Sketch 61.2 (89653) - https://sketch.com -->
    <title>qr code</title>
    <desc>Created with Sketch.</desc>
    <g id="qr-code" stroke="none" stroke-width="1" fill="none" fill-rule="evenodd">
        <path d="M11,15 C10.659631,14.9988971 10.3844466,14.7223704 10.3849992,14.382 L10.3849992,10.982 C10.3866488,10.6433545 10.6613509,10.3695457 11,10.3689992 L14.383,10.3689992 C14.54672,10.368734 14.7038109,10.4336538 14.8195786,10.5494214 C14.9353462,10.6651891 15.000266,10.82228 15.0000033,10.986 L15.0000033,14.386 C15.0005312,14.5495465 14.9360032,14.706591 14.8206395,14.8225175 C14.7052758,14.938444 14.5485471,15.0037354 14.3849992,15.004 L11,15 Z M11.163,14.219 L14.221,14.219 L14.221,11.15 L11.164,11.15 L11.163,14.219 Z M1.669,15 C1.32863097,14.9988971 1.05344656,14.7223704 1.05399917,14.382 L1.05399917,10.982 C1.05373457,10.8186266 1.11837996,10.6618391 1.23371488,10.5461291 C1.3490498,10.4304191 1.50562658,10.365265 1.669,10.365 L5.052,10.365 C5.21537342,10.365265 5.3719502,10.4304191 5.48728512,10.5461291 C5.60262004,10.6618391 5.66726543,10.8186266 5.66700083,10.982 L5.66700083,14.382 C5.66755344,14.7223704 5.39236903,14.9988971 5.052,15 L1.669,15 Z M1.832,14.219 L4.889,14.219 L4.889,11.15 L1.832,11.15 L1.832,14.219 Z M6.785,14.565 L6.785,12.125 C6.785,11.9101612 6.95916123,11.736 7.174,11.736 C7.38883877,11.736 7.563,11.9101612 7.563,12.125 L7.563,14.565 C7.563,14.7798388 7.38883877,14.954 7.174,14.954 C6.95916123,14.954 6.785,14.7798388 6.785,14.565 Z M8.832,14.565 L8.832,10.857 C8.832,10.6421612 9.00616123,10.468 9.221,10.468 C9.43583877,10.468 9.61,10.6421612 9.61,10.857 L9.61,14.566 C9.61,14.7808388 9.43583877,14.955 9.221,14.955 C9.00616123,14.955 8.832,14.7808388 8.832,14.566 L8.832,14.565 Z M1.389,9 C1.17333281,9 0.9985,8.82516719 0.9985,8.6095 C0.9985,8.39383281 1.17333281,8.219 1.389,8.219 L14.61,8.219 C14.8256672,8.219 15.0005,8.39383281 15.0005,8.6095 C15.0005,8.82516719 14.8256672,9 14.61,9 L1.389,9 Z M9.989,6.8 C9.78425282,6.79973496 9.58799685,6.71814518 9.44340627,6.57317952 C9.29881568,6.42821386 9.21773461,6.23174718 9.2179974,6.027 L9.2179974,1.774 C9.21746805,1.56873316 9.29870601,1.37170575 9.44375822,1.2264659 C9.58881042,1.08122604 9.78573265,0.99973342 9.991,0.999999348 L14.23,0.999999348 C14.4347473,1.00052975 14.6308982,1.08237372 14.7753014,1.22752702 C14.9197046,1.37268033 15.0005311,1.56925266 15.0000026,1.774 L15.0000026,6.029 C15.0002654,6.23374718 14.9191843,6.43021386 14.7745937,6.57517952 C14.6300031,6.72014518 14.4337472,6.80173496 14.229,6.802 L9.989,6.8 Z M10,6.021 L14.224,6.021 L14.224,1.781 L10,1.781 L10,6.021 Z M1.771,6.8 C1.34541686,6.79944908 1.00055092,6.45458314 0.999997404,6.029 L0.999997404,1.774 C0.999468946,1.56907973 1.08043266,1.37235601 1.22505203,1.22717392 C1.3696714,1.08199183 1.56607921,1.00026475 1.771,1 L6.01,1 C6.21492079,1.00026475 6.4113286,1.08199183 6.55594797,1.22717392 C6.70056734,1.37235601 6.78153105,1.56907973 6.7810026,1.774 L6.7810026,6.029 C6.78044908,6.45458314 6.43558314,6.79944908 6.01,6.8 L1.771,6.8 Z M1.778,6.019 L6,6.019 L6,1.781 L1.778,1.781 L1.778,6.019 Z M7.611,6.268 L7.611,1.39 C7.611,1.17516123 7.78516123,1.001 8,1.001 C8.21483877,1.001 8.389,1.17516123 8.389,1.39 L8.389,6.27 C8.389,6.48483877 8.21483877,6.659 8,6.659 C7.78516123,6.659 7.611,6.48483877 7.611,6.27 L7.611,6.268 Z" id="Union_2" fill="rgba(255, 255, 255, 0.8)" fill-rule="nonzero"></path>
    </g>
</svg>