<?xml version="1.0" encoding="UTF-8"?>
<svg width="12px" height="12px" viewBox="0 0 12 12" version="1.1" xmlns="http://www.w3.org/2000/svg" xmlns:xlink="http://www.w3.org/1999/xlink">
    <!-- Generator: Sketch 61.2 (89653) - https://sketch.com -->
    <title>reward</title>
    <desc>Created with Sketch.</desc>
    <defs>
        <path d="M0.251,11.579 L0.251,11.572 C0.253555145,11.5219487 0.262976619,11.4724859 0.279,11.425 L0.318,11.34 L2.087,7.984 L2.15,7.865 C2.2293765,7.76342669 2.35109009,7.70404521 2.48,7.704 C2.54954873,7.70472806 2.61799126,7.72149648 2.68,7.753 C2.70099191,7.76045108 2.72010369,7.77239595 2.736,7.788 C2.73986599,7.788 2.743,7.79113401 2.743,7.795 C2.75322888,7.80600089 2.76502206,7.81543543 2.778,7.823 C3.27390768,8.25844921 3.85191529,8.59029358 4.478,8.799 C4.513,8.813 4.555,8.82 4.597,8.834 C4.604,8.834 4.604,8.841 4.611,8.841 C4.618,8.841 4.66,8.869 4.681,8.883 L4.744,8.946 L4.744,8.953 L4.751,8.96 L4.807,9.065 L4.807,9.072 L5.523,10.392 L5.523,10.399 L5.586,10.511 C5.60029366,10.5562778 5.60738018,10.6035212 5.60701452,10.651 C5.60701452,10.721545 5.58768338,10.7907429 5.551,10.851 C5.544,10.858 5.544,10.872 5.53,10.879 L5.053,11.722 L5.053,11.729 L4.983,11.848 L4.927,11.904 L4.92,11.911 C4.90410369,11.9266041 4.88499191,11.9385489 4.864,11.946 C4.82982281,11.9674896 4.79177715,11.9820964 4.752,11.989 C4.7387726,11.9946972 4.72436016,11.9970993 4.71,11.996 L0.595,11.996 C0.585132812,11.9970475 0.575213416,11.9945676 0.567,11.989 C0.56,11.989 0.56,11.989 0.553,11.989 C0.504605796,11.9782554 0.458757688,11.958218 0.418,11.93 C0.416143485,11.93 0.414363007,11.9292625 0.413050253,11.9279497 C0.411737498,11.926637 0.411,11.9248565 0.411,11.923 C0.343229082,11.8767114 0.291787949,11.8102228 0.264,11.733 C0.264,11.684 0.25,11.628 0.25,11.579 L0.251,11.579 Z M5.77698432,9.444 L5.77698432,9.437 C5.78082099,9.20722635 5.96819458,9.02296823 6.198,9.023 L6.212,9.023 C7.29058353,8.97488121 8.32069841,8.56121303 9.133,7.85 C9.15493768,7.82965266 9.17833335,7.81093613 9.203,7.794 C9.27243442,7.74979716 9.35270455,7.72557772 9.435,7.724 C9.50454873,7.72472806 9.57299126,7.74149648 9.635,7.773 C9.656,7.787 9.684,7.801 9.705,7.815 C9.73361981,7.83531078 9.75750066,7.86157971 9.775,7.892 L9.824,7.983 L9.824,7.989 L11.624,11.324 L11.624,11.331 L11.687,11.443 C11.7012937,11.4882778 11.7083802,11.5355212 11.7080145,11.583 C11.7068559,11.6794167 11.6749765,11.7729531 11.617,11.85 L11.561,11.906 L11.554,11.913 C11.505511,11.9483254 11.4509356,11.9744267 11.393,11.99 L7.218,11.99 C7.16574818,11.97759 7.11602226,11.9562789 7.071,11.927 C7.06713401,11.927 7.064,11.923866 7.064,11.92 C7.01810723,11.8893616 6.97980338,11.8486637 6.952,11.801 L6.917,11.731 L5.868,9.718 L5.861,9.711 L5.861,9.704 L5.847,9.676 L5.812,9.606 L5.812,9.599 L5.805,9.589 L5.798,9.582 C5.78370043,9.53913126 5.77660429,9.49418904 5.77698432,9.449 L5.77698432,9.444 Z M5.977,8.42600012 C8.30308995,8.4243454 10.1883454,6.53908995 10.19,4.213 C10.1883454,1.88691005 8.30308995,0.00165459929 5.977,-7.10542736e-15 C3.6524723,0.00385892903 1.76965087,1.88846968 1.76799988,4.213 C1.76773467,5.33043839 2.21151783,6.40218559 3.00166612,7.19233388 C3.79181441,7.98248217 4.86356161,8.42626533 5.981,8.42600012 L5.977,8.42600012 Z M4.418,1.959 L5.984,2.788 L7.55,1.966 L7.25,3.714 L8.518,4.943 L6.763,5.196 L5.984,6.783 L5.198,5.196 L3.443,4.943 L4.714,3.707 L4.418,1.959 Z" id="path-1"></path>
    </defs>
    <g id="reward" stroke="none" stroke-width="1" fill="none" fill-rule="evenodd">
        <mask id="mask-2" fill="white">
            <use xlink:href="#path-1"></use>
        </mask>
        <use id="Path_150" fill="#000000" xlink:href="#path-1"></use>
    </g>
</svg>