<svg xmlns="http://www.w3.org/2000/svg" xmlns:xlink="http://www.w3.org/1999/xlink" width="60" height="60.001" viewBox="0 0 60 60.001">
  <defs>
    <clipPath id="clip-path">
      <path id="Path_136" data-name="Path 136" d="M30-60a2.223,2.223,0,0,1,1.611.651,2.221,2.221,0,0,1,.65,1.611,2.221,2.221,0,0,1-.65,1.611,2.221,2.221,0,0,1-1.611.65A25.477,25.477,0,0,0,4.524-30,25.477,25.477,0,0,0,30-4.524,25.477,25.477,0,0,0,55.478-30a2.261,2.261,0,0,1,2.261-2.261A2.261,2.261,0,0,1,60-30,30.078,30.078,0,0,1,30,0,30,30,0,0,1,0-30,30,30,0,0,1,30-60Zm26.909,7.022a2.037,2.037,0,0,1,1.475.632,2.1,2.1,0,0,1,0,2.95l-26.83,26.76A1.913,1.913,0,0,1,30.246-22l-.167,0a2.013,2.013,0,0,1-1.545-.7L17.928-34.222a2.088,2.088,0,0,1,.147-2.942,2.088,2.088,0,0,1,2.943.133l9.131,9.9L55.434-52.346A2.037,2.037,0,0,1,56.909-52.978Z" fill="#3ad39e"/>
    </clipPath>
    <clipPath id="clip-path-2">
      <path id="Path_135" data-name="Path 135" d="M0,0H60V-60H0Z" fill="#3ad39e"/>
    </clipPath>
  </defs>
  <g id="Group_19450" data-name="Group 19450" transform="translate(0 60.001)">
    <g id="Group_19449" data-name="Group 19449" clip-path="url(#clip-path)">
      <g id="Group_19448" data-name="Group 19448" clip-path="url(#clip-path-2)">
        <path id="Path_134" data-name="Path 134" d="M-5-65H65V5H-5Z" fill="#3ad39e"/>
      </g>
    </g>
  </g>
</svg>
