<?xml version="1.0" encoding="UTF-8"?>
<svg width="12px" height="12px" viewBox="0 0 12 12" version="1.1" xmlns="http://www.w3.org/2000/svg" xmlns:xlink="http://www.w3.org/1999/xlink">
    <!-- Generator: Sketch 61.2 (89653) - https://sketch.com -->
    <title>time</title>
    <desc>Created with Sketch.</desc>
    <g id="time" stroke="none" stroke-width="1" fill="none" fill-rule="evenodd">
        <path d="M6,-1.20656103e-05 C2.6862915,-1.20656103e-05 0,2.6862915 0,6 C0,9.3137085 2.6862915,12 6,12 C9.3137085,12 12.0000121,9.3137085 12.0000121,6 C12.0031941,4.407724 11.3720789,2.87974397 10.2461675,1.75383255 C9.12025603,0.627921127 7.592276,-0.00319414404 6,-1.20656103e-05 L6,-1.20656103e-05 Z M9.908,7.815 C9.83295188,7.98547016 9.66324134,8.09454167 9.477,8.092 C9.41372966,8.09687139 9.35022628,8.08623029 9.292,8.061 L5.754,6.461 C5.5867996,6.38217524 5.47925193,6.21483572 5.477,6.03 L5.477,2.707 C5.4884791,2.46046643 5.69169933,2.26648837 5.9385,2.26648837 C6.18530067,2.26648837 6.3885209,2.46046643 6.4,2.707 L6.4,5.753 L9.662,7.23 C9.77548655,7.27081852 9.86667906,7.35731936 9.91342935,7.46849381 C9.96017963,7.57966827 9.95821043,7.7053448 9.908,7.815 L9.908,7.815 Z" id="时间" fill="rgba(255, 255, 255, 0.8)" fill-rule="nonzero"></path>
    </g>
</svg>