<?xml version="1.0" encoding="UTF-8"?>
<svg width="24px" height="24px" viewBox="0 0 24 24" version="1.1" xmlns="http://www.w3.org/2000/svg" xmlns:xlink="http://www.w3.org/1999/xlink">
    <!-- Generator: Sketch 61.2 (89653) - https://sketch.com -->
    <title>txs</title>
    <desc>Created with Sketch.</desc>
    <g id="txs" stroke="none" stroke-width="1" fill="none" fill-rule="evenodd">
        <path d="M7.82344037,20.6802264 C8.24029464,20.2969468 8.26751229,19.6483102 7.8842327,19.2314559 L4.85827644,15.9404723 L21.2845059,15.9404723 C21.8503715,15.9404723 22.3090961,15.4817477 22.3090961,14.9158822 C22.3090961,14.3500166 21.8503715,13.8912918 21.2845059,13.8912918 L2.5249431,13.8912918 C2.11815822,13.8911603 1.74982196,14.131688 1.58637114,14.5041901 C1.42292031,14.8766921 1.49531574,15.3106093 1.77084474,15.6098712 L6.37466988,20.6194341 C6.75794947,21.0362884 7.40658611,21.063506 7.82344037,20.6802264 Z M16.1132286,3.27056115 C15.6963743,3.65384074 15.6691567,4.30247738 16.0524363,4.71933164 L19.0783925,8.01031525 L2.65216303,8.01031525 C2.08629751,8.01031525 1.62757287,8.46903989 1.62757287,9.03490541 C1.62757287,9.60077093 2.08629751,10.0594957 2.65216303,10.0594957 L21.4117259,10.0594957 C21.8185108,10.0596273 22.186847,9.81909957 22.3502978,9.44659751 C22.5137487,9.07409545 22.4413532,8.6401783 22.1658242,8.34091633 L17.5619991,3.33135348 C17.1787195,2.91449922 16.5300829,2.88728156 16.1132286,3.27056115 Z" id="Combined-Shape" fill="rgba(119, 119, 119, 1)" fill-rule="nonzero"></path>
    </g>
</svg>