<?xml version="1.0" encoding="UTF-8"?>
<svg width="16px" height="16px" viewBox="0 0 16 16" version="1.1" xmlns="http://www.w3.org/2000/svg" xmlns:xlink="http://www.w3.org/1999/xlink">
    <!-- Generator: Sketch 61.2 (89653) - https://sketch.com -->
    <title>user login</title>
    <desc>Created with Sketch.</desc>
    <defs>
        <path d="M10.72,7.8 C11.1106682,7.79602588 11.498538,7.86627002 11.863,8.007 C12.1968457,8.13463748 12.5025633,8.32622051 12.763,8.571 C13.0090375,8.81068983 13.2189013,9.08489387 13.386,9.385 C13.5556597,9.68328002 13.6940606,9.99828438 13.799,10.325 C13.9029642,10.6552563 13.9851409,10.99198 14.045,11.333 C14.1054107,11.6638213 14.1481381,11.9976285 14.173,12.333 C14.194,12.633 14.205,12.95 14.205,13.27 C14.238521,14.0147417 13.9551258,14.7388526 13.425,15.263 C12.9243037,15.7296386 12.2673915,15.9924748 11.583,16 L11.409,16 L3.791,16 C3.04976517,16.0310917 2.32648959,15.7667419 1.78,15.265 C1.24998138,14.740782 0.966605669,14.0167208 1,13.272 C1,12.953 1.011,12.638 1.032,12.335 C1.05674792,11.999617 1.09947603,11.6658037 1.16,11.335 C1.21991251,10.9939912 1.30208828,10.6572709 1.406,10.327 C1.51100607,10.0003096 1.64940397,9.685312 1.819,9.387 C1.9861106,9.08690166 2.19597312,8.81269927 2.442,8.573 C2.70240518,8.32817966 3.00813129,8.1365913 3.342,8.009 C3.6514722,7.88955279 3.9785302,7.82197883 4.31,7.809 L4.485,7.809 C4.67128107,7.82265459 4.84986396,7.8888863 5,8 L5.741,8.478 C6.00262939,8.63509552 6.28277896,8.75904658 6.575,8.847 C6.90458512,8.95515918 7.24912335,9.01083872 7.596,9.012 C7.94287936,9.01087188 8.28742275,8.95519151 8.617,8.847 C8.90952686,8.75901709 9.19000376,8.63506982 9.452,8.478 L10.097,8.061 C10.2622089,7.930199 10.4562519,7.84071982 10.663,7.8 L10.72,7.8 Z M7.4,-1.08203377e-16 C8.41599929,-0.0120552142 9.39056911,0.402146028 10.087,1.142 C10.8148553,1.87355243 11.2162354,2.86816734 11.2,3.9 C11.2162354,4.93183266 10.8148553,5.92644757 10.087,6.658 C9.43777849,7.35067597 8.54255106,7.7607641 7.594,7.8 L7.4,7.8 C6.38400071,7.81205521 5.40943089,7.39785397 4.713,6.658 C3.98514474,5.92644757 3.58376461,4.93183266 3.6,3.9 C3.5839215,2.86849112 3.98529831,1.87424506 4.713,1.143 C5.36199145,0.449866068 6.25727831,0.0393915865 7.206,-1.08203377e-16 L7.4,-1.08203377e-16 Z" id="path-1"></path>
    </defs>
    <g id="user-login" stroke="none" stroke-width="1" fill="rgba(213, 214, 215, 1)" fill-rule="evenodd">
        <mask id="mask-2" fill="white">
            <use xlink:href="#path-1"></use>
        </mask>
        <use id="Path_145" fill="rgba(213, 214, 215, 1)" xlink:href="#path-1"></use>
    </g>
</svg>