<?xml version="1.0" encoding="UTF-8"?>
<svg width="24px" height="24px" viewBox="0 0 24 24" version="1.1" xmlns="http://www.w3.org/2000/svg" xmlns:xlink="http://www.w3.org/1999/xlink">
    <title>user login_desktop</title>
    <g id="user-login_desktop" stroke="none" stroke-width="1" fill="none" fill-rule="evenodd">
        <path d="M18,0 C21.3137085,-6.08718376e-16 24,2.6862915 24,6 L24,18 C24,21.3137085 21.3137085,24 18,24 L6,24 C2.6862915,24 4.05812251e-16,21.3137085 0,18 L0,6 C-4.05812251e-16,2.6862915 2.6862915,6.08718376e-16 6,0 L18,0 Z M14.7226507,11.800256 L14.6656507,11.800256 C14.4589026,11.8409758 14.2648596,11.930455 14.0996507,12.061256 L14.0996507,12.061256 L13.4546507,12.478256 C13.1926545,12.6353258 12.9121776,12.7592731 12.6196507,12.847256 C12.2900735,12.9554475 11.9455301,13.0111279 11.5986507,13.012256 C11.2517741,13.0110947 10.9072358,12.9554152 10.5776507,12.847256 C10.2854297,12.7593026 10.0052801,12.6353515 9.74365072,12.478256 L9.74365072,12.478256 L9.00265072,12.000256 C8.85251468,11.8891423 8.67393179,11.8229106 8.48765072,11.809256 L8.48765072,11.809256 L8.31265072,11.809256 C7.98118092,11.8222348 7.65412291,11.8898088 7.34465072,12.009256 C7.010782,12.1368473 6.7050559,12.3284356 6.44465072,12.573256 C6.19862384,12.8129553 5.98876132,13.0871577 5.82165072,13.387256 C5.65205468,13.685568 5.51365679,14.0005656 5.40865072,14.327256 C5.30473899,14.6575269 5.22256323,14.9942471 5.16265072,15.335256 C5.10212675,15.6660597 5.05939864,15.999873 5.03465072,16.335256 C5.01365072,16.638256 5.00265072,16.953256 5.00265072,17.272256 C4.96925639,18.0169768 5.2526321,18.741038 5.78265072,19.265256 C6.32914031,19.7669979 7.05241589,20.0313477 7.79365072,20.000256 L7.79365072,20.000256 L15.5856507,20.000256 C16.2700422,19.9927308 16.9269544,19.7298946 17.4276507,19.263256 C17.9577766,18.7391086 18.2411717,18.0149977 18.2076507,17.270256 C18.2076507,16.950256 18.1966507,16.633256 18.1756507,16.333256 C18.1507888,15.9978845 18.1080615,15.6640773 18.0476507,15.333256 C17.9877916,14.992236 17.905615,14.6555123 17.8016507,14.325256 C17.6967113,13.9985404 17.5583104,13.683536 17.3886507,13.385256 C17.221552,13.0851499 17.0116882,12.8109458 16.7656507,12.571256 C16.505214,12.3264765 16.1994964,12.1348935 15.8656507,12.007256 C15.5011888,11.866526 15.1133189,11.7962819 14.7226507,11.800256 L14.7226507,11.800256 Z M11.4026507,4.00025599 L11.2086507,4.00025599 C10.259929,4.03964758 9.36464216,4.45012206 8.71565072,5.14325599 C7.98794903,5.87450105 7.58657222,6.86874711 7.60265072,7.90025599 C7.58641533,8.93208865 7.98779546,9.92670356 8.71565072,10.658256 C9.41208161,11.39811 10.3866514,11.8123112 11.4026507,11.800256 L11.4026507,11.800256 L11.5966507,11.800256 C12.5452018,11.7610201 13.4404292,11.350932 14.0896507,10.658256 C14.817506,9.92670356 15.2188861,8.93208865 15.2026507,7.90025599 C15.2188861,6.86842333 14.817506,5.87380842 14.0896507,5.14225599 C13.3932198,4.40240202 12.41865,3.98820078 11.4026507,4.00025599 L11.4026507,4.00025599 Z" id="Combined-Shape" fill="#999999"></path>
    </g>
</svg>