<?xml version="1.0" encoding="utf-8"?>
<!-- Generator: Adobe Illustrator 24.0.1, SVG Export Plug-In . SVG Version: 6.00 Build 0)  -->
<svg version="1.1" id="home" xmlns="http://www.w3.org/2000/svg" xmlns:xlink="http://www.w3.org/1999/xlink" x="0px" y="0px" width="120px" height="120px"
	 viewBox="0 0 120 120" style="enable-background:new 0 0 120 120;" xml:space="preserve">
<style type="text/css">
	.st0{fill:none;}
	.st1{stroke:#000000;stroke-width:0.14;stroke-miterlimit:10;}
	.st2{fill:#FD3B4C;}
	.st3{fill-rule:evenodd;clip-rule:evenodd;fill:#F4863B;}
	.st4{fill:#FFFFFF;}
	.st5{fill-rule:evenodd;clip-rule:evenodd;fill:#5C7BFC;}
	.st6{fill-rule:evenodd;clip-rule:evenodd;fill:#FEB92B;}
	.st7{fill-rule:evenodd;clip-rule:evenodd;fill:#3EAF66;}
	.st8{fill:#8F4DDB;}
	.st9{fill:#1D1E22;}
	.st10{fill:#FD565F;}
	.st11{fill:#25282D;}
	.st12{fill:#E6E6E6;}
	.st13{fill-rule:evenodd;clip-rule:evenodd;fill:#FD3B4C;}
	.st14{fill-rule:evenodd;clip-rule:evenodd;fill:#FFFFFF;}
	.st15{fill:#12B263;}
	.st16{fill:#3EAF66;}
	.st17{fill:#DC001A;}
	.st18{fill:#F6504B;}
</style>
<g>
	<path d="M60,0C26.92,0,0,26.92,0,60s26.92,60,60,60s60-26.92,60-60S93.08,0,60,0z M60,117C28.57,117,3,91.43,3,60S28.57,3,60,3
		s57,25.57,57,57S91.43,117,60,117z" fill="rgba(8, 178, 122, 1)"/>
	<path d="M80.34,66.02l-0.18-0.21c-1.35-1.57-3.62-1.94-5.4-0.9l-7.91,4.63l-0.04-0.06l-0.2-0.21c-0.35-0.34-0.76-0.61-1.22-0.78
		l-12.73-4.63l-0.18-0.05c-0.17-0.04-0.35-0.05-0.52-0.03l-0.01,0l-6.3,0.72l-0.18,0.03c-0.72,0.16-1.23,0.8-1.23,1.54v10.61v0.18
		c0.09,0.8,0.77,1.39,1.57,1.4h3.74l13.76,2.65c0.07,0.01,0.14,0.01,0.21,0.01c0.27,0,0.54-0.08,0.78-0.21l14.74-8.4l0.25-0.15
		c0.9-0.6,1.53-1.51,1.79-2.56c0.27-1.14,0.06-2.35-0.58-3.33L80.34,66.02z M78.02,68.86l-0.06,0.18c-0.09,0.23-0.26,0.41-0.47,0.53
		l-14.23,8.11l-13.4-2.58c-0.07-0.01-0.14-0.01-0.21-0.01H47.4v-7.63l4.54-0.52l12.38,4.51l0.05,0.03c0.03,0.02,0.06,0.05,0.07,0.09
		c0.02,0.05,0.02,0.1,0,0.15c-0.04,0.09-0.14,0.14-0.24,0.1l-6.96-2.28l-0.19-0.04c-0.79-0.16-1.57,0.3-1.81,1.06
		c-0.27,0.82,0.18,1.71,1,1.98c0,0,0.01,0,0.01,0l6.95,2.28l0.3,0.08c0.71,0.16,1.45,0.09,2.12-0.21l0.25-0.12
		c0.65-0.36,1.16-0.92,1.45-1.6l0.08-0.2l0.15-0.03c0.12-0.04,0.24-0.09,0.35-0.15l8.46-4.95l0.16-0.08
		c0.49-0.19,1.05-0.01,1.34,0.43C78.04,68.24,78.09,68.56,78.02,68.86z" fill="rgba(8, 178, 122, 1)"/>
	<path d="M48.93,48.1c-0.65,0.66-1.02,1.54-1.04,2.46c0.03,1.06,0.5,2.05,1.3,2.74l-0.25,0.26c-0.65,0.66-1.02,1.54-1.04,2.46
		c0,3.54,5.57,5.92,12.83,5.92c7.26,0,12.84-2.38,12.84-5.92l-0.01-0.29c-0.1-0.81-0.45-1.56-1.02-2.15l-0.21-0.21l-0.04-0.05h-0.04
		l0.06-0.06c0.77-0.69,1.22-1.66,1.25-2.69l-0.01-0.29c-0.1-0.81-0.45-1.56-1.02-2.15l-0.23-0.24l-0.05-0.05
		c0.82-0.7,1.31-1.71,1.34-2.79c0-3.57-5.59-5.96-12.86-5.96c-7.28,0-12.87,2.39-12.87,5.95c0.03,1.08,0.52,2.09,1.34,2.79
		L48.93,48.1z M60.74,59.18c-5.58,0-10.07-1.75-10.07-3.15c-0.01-0.3,0.14-0.58,0.39-0.75l0.03-0.02l0.03-0.03V55.2l0.02,0.02
		l0.12-0.16c0.04-0.06,0.07-0.11,0.1-0.17l0.04-0.12l0.43,0.19c2.69,1.03,5.55,1.55,8.43,1.52h0.47h0.47c3,0.04,5.97-0.53,8.75-1.66
		l0.46,0.46l0.12,0.13c0.16,0.17,0.26,0.39,0.28,0.62C70.81,57.43,66.32,59.18,60.74,59.18z M60.28,41.91h0.45h0.45
		c5.35,0.09,9.59,1.77,9.59,3.11c0,1.38-4.48,3.12-10.04,3.12c-5.56,0-10.04-1.74-10.04-3.12C50.69,43.69,54.93,42,60.28,41.91z
		 M50.66,50.45c0.02-0.2,0.11-0.38,0.26-0.5l0.1-0.1l0.05-0.04l0.03-0.03v-0.04l0.02,0.02l0.12-0.16c0.04-0.05,0.07-0.11,0.1-0.17
		l0.06-0.15c2.95,1.22,6.13,1.81,9.32,1.72c3.15,0.09,6.27-0.48,9.19-1.65l0.48,0.48l0.12,0.13c0.16,0.17,0.26,0.39,0.28,0.62
		c0,1.4-4.49,3.15-10.07,3.15c-5.58,0-10.07-1.75-10.07-3.15V50.45z" fill="rgba(8, 178, 122, 1)"/>
	<path d="M40.37,63.39c-0.87,0-1.57,0.71-1.57,1.58v13.16v0.18c0.09,0.8,0.77,1.39,1.57,1.4c0.87,0,1.58-0.7,1.58-1.57c0,0,0,0,0,0
		V64.97v-0.18C41.85,63.99,41.18,63.39,40.37,63.39z" fill="rgba(8, 178, 122, 1)"/>
	<path d="M51.94,63.76c0.01,0,0.02,0,0.03,0l0.17-0.01L51.94,63.76z" fill="rgba(8, 178, 122, 1)"/>
	<polygon points="40.37,63.39 40.37,63.39 40.38,63.39 	"/>
	
</g>
</svg>
