<?xml version="1.0" encoding="UTF-8"?>
<svg width="24px" height="24px" viewBox="0 0 24 24" version="1.1" xmlns="http://www.w3.org/2000/svg" xmlns:xlink="http://www.w3.org/1999/xlink">
    <!-- Generator: Sketch 61.2 (89653) - https://sketch.com -->
    <title>validators</title>
    <desc>Created with Sketch.</desc>
    <g id="validators" stroke="none" stroke-width="1" fill="none" fill-rule="evenodd">
        <path d="M22,23.5 C22,23.7761424 21.7761424,24 21.5,24 L20.5,24 C20.2238576,24 20,23.7761424 20,23.5 L20,14 C20,13.4871642 19.6139598,13.0644928 19.1166211,13.0067277 L19,13 L5,13 C4.48716416,13 4.06449284,13.3860402 4.00672773,13.8833789 L4,14 L4,23.5 C4,23.7761424 3.77614237,24 3.5,24 L2.5,24 C2.22385763,24 2,23.7761424 2,23.5 L2,14 C2,12.4023191 3.24891996,11.0963391 4.82372721,11.0050927 L5,11 L19,11 C20.5976809,11 21.9036609,12.24892 21.9949073,13.8237272 L22,14 L22,23.5 Z M12,0 C15.0375661,0 17.5,2.46243388 17.5,5.5 C17.5,8.53756612 15.0375661,11 12,11 C8.96243388,11 6.5,8.53756612 6.5,5.5 C6.5,2.46243388 8.96243388,0 12,0 Z M12,2 C10.0670034,2 8.5,3.56700338 8.5,5.5 C8.5,7.43299662 10.0670034,9 12,9 C13.9329966,9 15.5,7.43299662 15.5,5.5 C15.5,3.56700338 13.9329966,2 12,2 Z" id="Combined-Shape" fill="rgba(119, 119, 119, 1)" fill-rule="nonzero"></path>
    </g>
</svg>