<?xml version="1.0" encoding="UTF-8"?>
<svg width="24px" height="24px" viewBox="0 0 24 24" version="1.1" xmlns="http://www.w3.org/2000/svg" xmlns:xlink="http://www.w3.org/1999/xlink">
    <title>vote</title>
    <g id="vote" stroke="none" stroke-width="1" fill="none" fill-rule="evenodd">
        <path d="M13.29,-3.55271368e-15 C13.56,-3.55271368e-15 13.81,0.11 14.01,0.3 L14.01,0.3 L21.13,7.44 C21.52,7.84 21.52,8.48 21.13,8.89 L21.13,8.89 L17.21,12.81 L22.07,12.81 C23.14,12.81 24,13.67 23.9900863,14.74 L23.9900863,14.74 L23.9900863,21.75 C23.9900863,22.8 23.12,23.66 22.07,23.66 L22.07,23.66 L1.92,23.66 L1.92,23.66 L1.77000324,23.654222 C0.780045351,23.5776644 2.84217094e-14,22.75 2.84217094e-14,21.75 L2.84217094e-14,21.75 L2.84217094e-14,14.74 C2.84217094e-14,13.67 0.86,12.81 1.93,12.81 L1.93,12.81 L5.16,12.81 L3.33,10.98 C2.94,10.57 2.94,9.93 3.33,9.52 L3.33,9.52 L12.55,0.3 C12.75,0.11 13.01,-3.55271368e-15 13.28,-3.55271368e-15 L13.28,-3.55271368e-15 Z M6.98,14.62 L1.94,14.62 C1.88,14.62 1.83,14.67 1.83,14.73 L1.83,14.73 L1.83,21.74 C1.83,21.79 1.88,21.84 1.94,21.84 L1.94,21.84 L22.07,21.84 C22.12,21.84 22.17,21.79 22.17,21.73 L22.17,21.73 L22.17,14.72 C22.17,14.67 22.12,14.62 22.06,14.62 L22.06,14.62 L15.4,14.62 L13.12,16.9 L18.04,16.9 C18.53,16.9 18.94,17.3 18.94,17.8 C18.94,18.29 18.54,18.7 18.04,18.7 L18.04,18.7 L5.99,18.7 C5.5,18.7 5.09,18.3 5.09,17.8 C5.09,17.31 5.49,16.9 5.99,16.9 L5.99,16.9 L9.26,16.9 L6.98,14.62 Z M13.29,2.17 L5.19,10.27 L11.2,16.28 L19.3,8.18 L13.29,2.17 Z M14.89,7.58 L15.0081944,7.58819444 C15.2019444,7.61527778 15.3783333,7.70833333 15.52,7.85 C15.87,8.21 15.87,8.79 15.51,9.14 L15.51,9.14 L12.62,12.03 C12.34,12.32 11.95,12.48 11.55,12.48 C11.54,12.48 11.53,12.48 11.52,12.49 C11.11,12.49 10.73,12.33 10.44,12.05 L10.44,12.05 L8.47,10.06 C8.45,10.05 8.44,10.03 8.42,10.01 C8.26,9.83 8.18,9.6 8.19,9.36 C8.2,9.12 8.3,8.89 8.48,8.73 C8.64,8.57 8.86,8.49 9.09,8.49 L9.09,8.49 L9.13,8.49 C9.37,8.5 9.59,8.6 9.76,8.77 L9.76,8.77 L11.56,10.53 L14.25,7.84 C14.42,7.67 14.65,7.58 14.89,7.58 L14.89,7.58 Z" id="Combined-Shape" fill="rgba(119, 119, 119, 1)" fill-rule="nonzero"></path>
    </g>
</svg>